<svg id="svg" xmlns="http://www.w3.org/2000/svg" xmlns:xlink="http://www.w3.org/1999/xlink" width="400" height="353.84615384615387" viewBox="0, 0, 400,353.84615384615387"><g id="svgg"><path id="path0" d="M19.335 3.997 C 10.720 8.301,5.476 14.189,1.965 23.495 C 0.160 28.280,-0.017 46.075,0.294 191.646 L 0.641 354.446 10.577 342.943 L 20.513 331.439 20.513 183.617 C 20.513 16.115,19.710 28.719,30.735 23.094 C 38.694 19.034,361.306 19.034,369.265 23.094 C 380.217 28.682,379.487 18.527,379.487 165.385 C 379.487 293.675,379.461 295.026,376.848 300.147 C 371.345 310.934,383.159 310.196,215.355 310.228 L 67.248 310.256 57.051 320.513 L 46.855 330.769 208.363 330.762 C 314.333 330.757,371.493 330.305,374.586 329.445 C 383.583 326.947,391.269 320.536,395.806 311.747 L 400.000 303.622 399.972 165.593 C 399.944 29.691,399.904 27.476,397.343 21.831 C 393.148 12.584,389.004 8.163,380.582 3.955 L 372.667 0.000 200.000 0.000 L 27.333 0.000 19.335 3.997 M83.333 73.077 L 83.333 79.487 90.385 79.487 L 97.436 79.487 97.436 101.282 L 97.436 123.077 103.205 123.077 L 108.974 123.077 108.974 101.282 L 108.974 79.487 116.026 79.487 L 123.077 79.487 123.077 73.077 L 123.077 66.667 103.205 66.667 L 83.333 66.667 83.333 73.077 M130.769 94.872 L 130.769 123.077 136.538 123.077 L 142.308 123.077 142.308 112.179 L 142.308 101.282 150.000 101.282 L 157.692 101.282 157.692 112.179 L 157.692 123.077 164.103 123.077 L 170.513 123.077 170.513 94.872 L 170.513 66.667 164.103 66.667 L 157.692 66.667 157.692 77.564 L 157.692 88.462 150.000 88.462 L 142.308 88.462 142.308 77.564 L 142.308 66.667 136.538 66.667 L 130.769 66.667 130.769 94.872 M178.205 94.872 L 178.205 123.077 194.872 123.077 L 211.538 123.077 211.538 117.308 L 211.538 111.538 201.282 111.538 L 191.026 111.538 191.026 106.410 L 191.026 101.282 199.359 101.282 L 207.692 101.282 207.692 94.872 L 207.692 88.462 199.359 88.462 L 191.026 88.462 191.026 83.974 L 191.026 79.487 200.641 79.487 L 210.256 79.487 210.256 73.077 L 210.256 66.667 194.231 66.667 L 178.205 66.667 178.205 94.872 M83.333 164.744 L 83.333 193.590 89.744 193.590 L 96.154 193.590 96.154 179.215 L 96.154 164.840 102.288 170.882 C 109.823 178.303,109.101 178.338,116.700 170.192 L 122.979 163.462 123.028 178.526 L 123.077 193.590 128.846 193.590 L 134.615 193.590 134.615 164.744 C 134.615 130.178,134.976 130.601,119.987 147.570 C 114.410 153.885,109.453 158.890,108.971 158.692 C 108.489 158.495,103.584 153.285,98.070 147.115 C 83.075 130.337,83.333 130.028,83.333 164.744 M161.438 137.572 C 148.314 142.488,140.533 156.256,143.048 170.109 C 149.908 207.889,206.453 197.923,200.756 159.938 C 198.148 142.543,178.302 131.254,161.438 137.572 M201.641 138.782 C 208.156 155.267,227.782 194.893,229.286 194.599 C 230.897 194.283,238.329 179.357,253.883 145.192 L 257.531 137.179 250.152 137.179 L 242.773 137.179 236.450 150.579 C 228.774 166.849,230.152 166.843,222.095 150.641 L 215.400 137.179 208.204 137.179 C 202.964 137.179,201.180 137.615,201.641 138.782 M262.821 165.385 L 262.821 193.590 268.590 193.590 L 274.359 193.590 274.359 165.385 L 274.359 137.179 268.590 137.179 L 262.821 137.179 262.821 165.385 M283.333 165.385 L 283.333 193.590 299.359 193.590 L 315.385 193.590 315.385 187.179 L 315.385 180.769 305.128 180.769 L 294.872 180.769 294.872 176.282 L 294.872 171.795 303.846 171.795 L 312.821 171.795 312.821 165.385 L 312.821 158.974 303.846 158.974 L 294.872 158.974 294.872 153.846 L 294.872 148.718 305.128 148.718 L 315.385 148.718 315.385 142.949 L 315.385 137.179 299.359 137.179 L 283.333 137.179 283.333 165.385 M179.529 150.663 C 188.525 155.315,190.270 168.961,182.821 176.410 C 175.367 183.864,163.040 182.179,158.326 173.063 C 150.949 158.797,165.510 143.413,179.529 150.663 M83.333 234.615 L 83.333 262.821 95.554 262.821 C 118.055 262.821,128.149 254.284,128.149 235.256 C 128.149 215.771,116.497 206.410,92.245 206.410 L 83.333 206.410 83.333 234.615 M135.897 234.477 L 135.897 262.821 150.468 262.821 C 166.620 262.821,169.712 261.593,173.884 253.524 C 176.254 248.942,175.619 240.701,172.642 237.400 C 170.962 235.537,170.948 234.930,172.534 232.768 C 174.732 229.771,174.933 219.329,172.879 214.822 C 170.066 208.647,165.969 207.159,150.321 206.625 L 135.897 206.134 135.897 234.477 M107.734 221.176 C 121.625 228.359,115.344 251.282,99.486 251.282 L 96.154 251.282 96.154 235.256 L 96.154 219.231 100.064 219.231 C 102.214 219.231,105.666 220.106,107.734 221.176 M159.511 220.009 C 165.413 222.274,160.190 229.487,152.648 229.487 C 148.918 229.487,148.718 229.227,148.718 224.359 C 148.718 219.044,152.755 217.417,159.511 220.009 M160.806 243.040 C 164.836 247.071,161.233 251.282,153.755 251.282 C 148.733 251.282,148.718 251.267,148.718 246.154 C 148.718 240.409,156.238 238.472,160.806 243.040 " stroke="none" fill="#000000" fill-rule="evenodd"></path></g></svg>
